<?xml version="1.0" standalone="no"?>
<!DOCTYPE svg PUBLIC "-//W3C//DTD SVG 20010904//EN"
 "http://www.w3.org/TR/2001/REC-SVG-20010904/DTD/svg10.dtd">
<svg version="1.0" xmlns="http://www.w3.org/2000/svg"
 width="324.000000pt" height="701.000000pt" viewBox="0 0 324.000000 701.000000"
 preserveAspectRatio="xMidYMid meet">

<g transform="translate(0.000000,701.000000) scale(0.100000,-0.100000)"
fill="#000000" stroke="none">
<path d="M1 6268 c1 -409 5 -732 9 -718 5 15 8 -33 7 -122 0 -98 -4 -148 -11
-148 -7 0 -8 -3 -1 -8 12 -8 15 -113 3 -106 -4 3 -8 -18 -8 -46 0 -38 3 -49
12 -44 11 6 11 4 0 -7 -16 -18 -16 -63 1 -53 9 6 9 5 1 -7 -18 -21 -19 -423
-2 -413 8 5 7 1 -2 -11 -9 -11 -10 -16 -3 -11 9 5 12 1 11 -11 -4 -50 2 -72
19 -66 9 4 14 2 11 -3 -3 -5 -2 -18 3 -29 6 -16 8 -17 8 -3 1 11 8 16 22 13
16 -3 19 0 14 14 -3 12 0 21 10 25 9 3 13 2 10 -3 -3 -5 0 -13 6 -17 7 -4 9
-3 6 3 -6 10 15 36 24 30 2 -1 -2 4 -10 11 -10 8 -11 12 -3 12 7 0 12 7 12 16
0 8 5 12 10 9 13 -8 13 1 1 24 -7 13 -6 18 4 18 8 0 12 -4 9 -9 -3 -4 2 -18
10 -30 13 -18 16 -19 16 -5 0 9 5 17 11 17 7 0 9 10 7 25 -4 16 -1 25 7 25 9
0 11 -8 7 -22 -4 -15 -2 -19 7 -14 7 5 10 10 7 13 -10 11 15 43 34 43 17 0 18
5 13 50 -5 42 -3 50 11 50 18 0 21 27 5 50 -8 12 -9 10 -4 -9 5 -16 4 -21 -4
-17 -6 4 -11 18 -11 32 0 13 -4 24 -10 24 -5 0 -8 14 -6 30 2 19 -1 30 -9 30
-18 0 -44 32 -49 61 -2 13 -5 26 -6 29 -2 3 -2 9 -1 13 1 5 -3 6 -9 2 -5 -3
-19 -1 -30 5 -16 9 -19 15 -10 24 5 8 8 21 4 30 -3 9 0 24 7 33 12 14 12 15
-1 11 -19 -7 -93 30 -85 42 4 6 12 10 18 10 8 0 8 -3 -1 -9 -11 -7 -10 -9 3
-14 9 -4 18 -1 21 8 4 8 12 15 19 15 8 0 16 4 19 9 4 5 -3 7 -14 4 -14 -4 -20
0 -20 11 0 10 -5 14 -10 11 -9 -6 -12 1 -9 22 0 3 -6 10 -14 14 -9 6 -13 18
-9 35 4 20 2 25 -8 19 -9 -6 -10 0 -4 26 4 19 7 45 7 59 -1 14 3 30 8 36 12
15 0 46 -15 37 -7 -4 -7 -1 1 9 7 8 10 18 6 22 -8 8 28 3 42 -6 6 -4 12 2 12
13 2 16 -3 19 -20 14 -19 -5 -19 -4 3 9 33 19 34 53 3 73 l-25 17 24 18 c12
10 19 18 13 17 -5 -1 -17 -1 -25 0 -13 1 -13 3 -1 10 9 6 22 6 33 0 14 -8 18
-6 19 8 0 11 3 13 6 6 2 -7 9 -13 14 -13 6 0 8 4 4 9 -3 5 0 13 6 17 8 4 9 3
5 -4 -4 -7 -1 -12 6 -12 7 -1 2 -7 -10 -14 -23 -12 -21 -13 20 -14 25 0 36 2
26 6 -16 7 -15 9 7 26 13 10 22 22 20 27 -10 15 11 17 35 3 14 -8 18 -14 10
-13 -8 1 -22 1 -30 0 -13 -1 -13 -3 0 -12 13 -9 12 -10 -2 -5 -10 3 -20 1 -23
-4 -4 -6 3 -10 14 -10 11 0 23 4 26 10 5 8 84 4 94 -6 2 -2 10 1 18 7 9 8 13
8 13 1 0 -11 -38 -28 -54 -23 -5 1 -3 -5 4 -14 11 -13 15 -13 21 -3 6 8 9 9 9
2 0 -7 9 -14 20 -17 13 -3 20 0 20 9 0 8 5 14 11 14 7 0 9 -10 5 -26 -6 -24
-6 -25 9 -10 9 9 13 21 9 28 -6 10 -5 11 8 1 8 -7 18 -10 21 -6 4 3 7 1 7 -6
0 -7 4 -10 9 -7 13 8 42 -4 35 -15 -5 -8 9 -13 21 -6 2 1 10 -7 18 -17 10 -14
21 -17 40 -12 23 5 27 3 27 -16 0 -19 2 -20 10 -8 9 13 10 13 11 0 1 -8 0 -19
-1 -25 -1 -5 2 -7 5 -3 4 4 16 3 26 -3 15 -8 18 -6 13 8 -5 15 -3 15 11 -2 9
-11 22 -19 29 -17 8 1 17 -9 20 -23 4 -14 11 -23 16 -20 6 4 18 -7 28 -24 15
-28 39 -38 75 -32 11 2 8 -6 -9 -23 -13 -14 -13 -16 -1 -16 8 0 18 -7 21 -16
3 -8 10 -12 16 -9 5 3 10 1 10 -5 0 -6 4 -8 10 -5 6 4 10 -5 10 -19 0 -14 -4
-26 -9 -26 -17 0 2 -42 23 -50 19 -8 18 -9 -8 -9 -25 -1 -27 -3 -15 -18 9 -11
10 -14 2 -9 -9 5 -11 2 -7 -9 4 -9 12 -14 19 -11 10 4 10 -1 0 -22 -7 -15 -12
-44 -10 -64 1 -21 -2 -35 -7 -32 -4 3 -6 9 -3 14 3 5 2 11 -3 14 -5 3 -9 0
-10 -7 -6 -44 -16 -77 -23 -77 -9 0 -29 -40 -35 -69 -1 -8 -9 -18 -16 -22 -7
-5 -9 -9 -4 -9 6 0 1 -6 -9 -14 -18 -13 -18 -13 1 -25 12 -7 14 -11 4 -9 -53
7 -77 -36 -42 -75 16 -19 16 -20 -1 -14 -12 4 -16 3 -11 -4 11 -19 -17 -60
-37 -54 -15 5 -17 0 -16 -32 1 -21 7 -42 12 -46 6 -5 0 -7 -12 -4 -33 7 -39
-11 -9 -23 14 -5 26 -17 26 -26 0 -16 -1 -16 -19 0 -12 11 -21 14 -26 7 -3 -6
4 -15 17 -20 54 -20 54 -19 33 -21 -11 -1 -25 -2 -32 -1 -15 2 -34 -32 -25
-45 10 -13 46 -18 37 -5 -3 6 -1 11 4 11 6 0 11 -12 11 -26 0 -24 -2 -25 -17
-13 -15 13 -15 12 -3 -8 8 -12 21 -20 32 -18 10 2 16 0 13 -6 -4 -5 -10 -7
-15 -4 -9 6 -23 -25 -15 -33 3 -3 5 1 5 8 0 20 16 0 25 -30 4 -17 3 -21 -3
-12 -6 10 -9 5 -8 -16 1 -17 3 -29 5 -27 8 9 32 -26 29 -42 -3 -15 -4 -15 -20
0 -19 19 -28 22 -28 8 0 -5 9 -13 20 -16 16 -5 20 -13 17 -41 -3 -26 -1 -34
11 -32 10 2 16 -7 19 -27 2 -16 8 -34 14 -39 5 -6 9 -25 9 -43 0 -25 4 -33 18
-33 13 0 17 -7 16 -27 -1 -19 -6 -28 -18 -27 -20 2 -21 -12 -1 -20 8 -3 15 0
16 7 1 7 4 1 8 -13 4 -15 3 -28 -3 -32 -7 -6 -6 -11 4 -18 10 -6 11 -10 3 -10
-7 0 -13 -5 -13 -10 0 -6 6 -9 13 -8 7 2 11 -6 9 -19 -2 -12 2 -24 8 -28 7 -4
7 -12 0 -26 -6 -10 -7 -19 -3 -19 4 0 1 -5 -7 -10 -8 -5 -10 -10 -3 -10 12 0
12 -17 0 -37 -4 -6 -3 -14 3 -18 6 -4 8 -11 5 -16 -3 -5 1 -6 10 -2 12 4 13 8
5 13 -7 5 -9 13 -5 21 6 9 10 8 15 -7 5 -13 0 -26 -14 -40 -43 -43 -67 -77
-51 -70 15 5 20 -13 17 -57 -1 -10 2 -16 7 -12 5 3 12 1 16 -4 6 -11 -27 -7
-48 5 -6 4 -9 4 -5 -1 4 -4 0 -13 -9 -20 -13 -9 -13 -14 -3 -20 9 -6 11 -4 5
5 -6 9 -4 11 4 6 9 -6 8 -13 -6 -29 -10 -11 -12 -17 -4 -12 10 6 12 4 7 -4 -5
-7 -14 -10 -22 -7 -7 3 -16 0 -20 -6 -5 -7 -2 -8 7 -4 8 5 8 2 -2 -6 -9 -7
-14 -19 -11 -27 3 -10 -2 -12 -22 -7 -15 4 -26 2 -26 -4 0 -5 -7 -10 -15 -10
-10 0 -13 -10 -11 -35 2 -25 -1 -32 -9 -25 -7 6 -10 21 -7 35 5 28 -9 33 -28
10 -11 -13 -10 -14 6 -8 17 6 17 5 6 -10 -8 -8 -20 -13 -28 -10 -9 3 -14 -1
-14 -12 0 -15 -2 -15 -15 -1 -11 11 -22 13 -38 7 -12 -5 -30 -7 -40 -5 -13 2
-15 -1 -8 -9 7 -9 1 -12 -19 -13 -20 -1 -27 3 -23 12 3 9 -3 14 -17 14 -14 0
-20 -5 -17 -13 7 -19 -81 -16 -93 3 -9 13 -10 13 -11 0 -1 -8 -1 -19 0 -25 1
-5 -5 -2 -13 8 -9 11 -20 15 -31 10 -13 -4 -16 -3 -11 5 5 9 1 9 -18 2 -21 -8
-24 -7 -19 7 5 13 0 15 -25 11 -18 -2 -32 -1 -32 3 0 14 -34 19 -42 7 -4 -7
-8 -10 -9 -5 -1 4 -3 12 -4 17 -1 6 -3 16 -4 23 -1 8 -4 8 -10 -3 -6 -8 -7
-18 -5 -22 3 -4 0 -8 -5 -8 -6 0 -11 7 -11 16 0 8 -4 13 -9 10 -5 -3 -12 1
-15 10 -4 11 -13 13 -27 9 -18 -6 -21 -4 -16 10 5 11 3 15 -5 12 -7 -2 -12
-10 -11 -16 2 -6 -2 -11 -8 -11 -6 0 -9 7 -6 15 4 8 2 17 -3 20 -6 4 -10 -10
-10 -30 0 -22 -4 -34 -10 -30 -7 4 -7 -2 0 -19 6 -16 6 -27 0 -31 -6 -4 -10
-614 -10 -1666 l0 -1659 1468 1 c1296 1 1455 3 1367 15 -55 8 -125 14 -155 13
-68 0 -140 10 -140 21 0 5 -9 7 -20 5 -11 -2 -20 0 -20 6 0 5 -7 9 -15 9 -8 0
-19 9 -25 20 -7 14 -21 20 -44 20 -29 0 -34 4 -39 28 -4 20 -15 32 -41 42 -41
16 -42 18 -18 37 9 8 12 12 7 9 -17 -8 -38 10 -40 35 -1 13 -7 25 -13 27 -9 3
-10 -3 -2 -22 13 -35 5 -33 -13 3 -14 28 -13 31 7 46 l21 16 -22 -11 c-19 -9
-23 -8 -23 5 0 8 5 15 10 15 6 0 10 5 10 10 0 6 -6 9 -13 8 -7 -2 -11 5 -9 17
2 17 1 17 -11 -4 -13 -21 -15 -22 -21 -5 -4 11 -1 21 9 26 17 10 21 48 4 48
-5 0 -7 4 -4 10 3 6 -1 7 -9 4 -11 -4 -16 0 -16 12 0 14 -2 16 -9 6 -6 -10
-10 -9 -14 7 -3 12 -1 19 4 15 5 -3 9 -1 9 5 0 5 -4 12 -9 15 -5 3 -7 15 -4
26 6 22 -12 28 -20 8 -4 -9 -6 -10 -6 -1 -1 6 6 19 15 27 13 14 14 16 0 16 -8
0 -18 5 -22 12 -5 7 -3 8 6 3 10 -6 12 -4 7 8 -3 9 -1 18 6 21 9 3 9 5 0 5
-20 1 -15 31 5 32 9 0 12 3 7 5 -6 2 -9 21 -7 42 2 27 1 33 -7 22 -5 -8 -7
-18 -4 -24 3 -5 2 -6 -4 -3 -5 4 -9 19 -7 34 1 15 2 41 3 56 1 16 5 26 11 22
6 -3 10 3 10 15 0 14 4 19 13 14 8 -5 8 -3 -2 9 -7 9 -16 15 -20 13 -3 -2 -7
7 -7 20 -2 20 1 23 12 13 11 -9 14 -8 14 1 0 8 3 10 6 7 4 -4 1 -13 -5 -21
-10 -12 -9 -15 7 -13 12 0 18 7 15 17 -2 8 3 24 12 35 9 11 14 14 10 8 -7 -14
7 -18 19 -6 11 11 46 14 63 4 23 -12 44 9 32 32 -7 13 -6 17 6 17 9 0 14 4 11
9 -4 5 0 12 6 14 10 4 10 6 1 6 -7 1 -13 7 -13 15 0 15 41 16 53 1 6 -6 10 -6
14 3 2 6 14 12 26 13 15 0 17 2 7 6 -8 4 -21 13 -29 21 -12 12 -10 13 15 10
16 -1 33 -7 37 -13 4 -6 7 -1 5 10 -2 15 2 19 16 17 10 -2 15 1 12 7 -11 17
24 41 51 37 18 -4 26 0 30 13 3 12 12 17 29 15 18 -2 24 3 24 17 0 14 7 19 30
19 21 0 28 4 24 14 -4 10 0 13 13 11 10 -1 17 -8 16 -13 -2 -6 4 -9 12 -6 8 4
15 9 15 13 0 4 15 5 34 3 18 -2 37 1 40 7 4 6 26 11 49 11 25 0 37 4 29 8 -9
6 -6 12 11 21 18 10 28 9 50 -2 15 -8 24 -16 21 -19 -2 -3 2 -8 11 -12 9 -3
14 -2 10 3 -7 12 6 45 14 34 15 -20 48 -32 60 -20 8 8 11 7 11 -3 0 -13 1 -13
9 0 6 8 7 19 4 25 -4 5 3 2 14 -8 17 -15 25 -16 42 -7 17 8 22 8 27 -3 2 -7
18 -13 34 -13 l30 0 0 2468 c0 1748 -3 2468 -11 2468 -6 0 -8 -8 -4 -20 5 -14
2 -20 -10 -20 -11 0 -15 6 -11 18 5 16 1 17 -31 13 -21 -2 -32 -6 -25 -8 6 -3
12 -9 12 -14 0 -5 -26 -6 -60 -2 -38 4 -60 2 -60 -4 0 -6 -11 -8 -24 -6 -26 5
-29 28 -5 45 11 8 11 9 -3 5 -11 -4 -20 3 -28 22 -9 24 -16 28 -41 25 -22 -3
-28 0 -23 9 6 9 5 9 -7 0 -9 -8 -20 -9 -29 -3 -10 7 -11 10 -2 10 6 0 12 8 12
18 0 12 -3 13 -8 5 -6 -10 -17 -8 -45 7 -21 11 -48 21 -61 22 -14 1 -23 5 -20
9 2 4 0 10 -6 14 -5 3 -10 -1 -10 -9 0 -9 -5 -16 -12 -16 -6 0 -8 3 -5 7 9 8
-24 32 -46 33 -9 0 -27 11 -39 25 -17 20 -24 22 -41 14 -12 -7 -17 -7 -13 -1
3 5 0 12 -8 15 -8 3 -17 20 -21 38 -4 17 -10 28 -14 23 -9 -13 -31 -16 -31 -4
0 5 -8 10 -17 10 -15 0 -14 2 3 14 10 8 16 18 11 22 -4 4 -7 2 -7 -4 0 -9 -4
-9 -18 -1 -12 8 -17 20 -14 35 2 13 -1 24 -6 24 -6 0 -16 10 -23 21 -9 17 -8
23 2 30 9 6 10 9 2 9 -6 0 -20 -8 -29 -17 -16 -16 -17 -16 -12 -1 4 9 2 18 -3
20 -5 2 -11 16 -12 31 -1 15 -8 32 -16 36 -15 10 -6 51 12 51 8 0 8 3 2 8 -5
4 -18 17 -28 29 -14 16 -15 23 -6 29 7 4 10 3 5 -4 -3 -6 -2 -13 4 -17 5 -3
10 1 10 9 0 8 -5 18 -10 21 -8 5 -7 12 2 23 10 12 10 14 0 8 -12 -7 -34 32
-25 47 2 4 -1 8 -6 8 -6 1 -17 2 -23 3 -8 1 -14 21 -16 54 l-3 52 -1145 0
-1144 0 1 -742z m2499 182 c0 -5 -5 -10 -11 -10 -5 0 -7 5 -4 10 3 6 8 10 11
10 2 0 4 -4 4 -10z m50 -31 c0 -5 -9 -9 -20 -9 -19 0 -27 20 -13 33 7 8 33
-11 33 -24z m141 -112 c-10 -9 -11 -8 -5 6 3 10 9 15 12 12 3 -3 0 -11 -7 -18z
m63 -18 c-4 -8 1 -9 16 -4 14 5 20 3 16 -3 -3 -6 -1 -12 6 -15 7 -2 0 -2 -17
1 -16 2 -32 6 -34 8 -4 3 8 24 15 24 3 0 2 -5 -2 -11z m281 -169 c-3 -5 -12
-10 -18 -10 -7 0 -6 4 3 10 19 12 23 12 15 0z m-2665 -435 c0 -2 -7 -8 -15
-15 -12 -10 -15 -10 -15 2 0 8 7 15 15 15 8 0 15 -1 15 -2z m61 -62 c-12 -20
-14 -14 -5 12 4 9 9 14 11 11 3 -2 0 -13 -6 -23z m-307 -69 c5 -14 4 -15 -9
-4 -17 14 -19 20 -6 20 5 0 12 -7 15 -16z m-77 -46 c-3 -7 -5 -2 -5 12 0 14 2
19 5 13 2 -7 2 -19 0 -25z m657 6 c3 -8 2 -12 -4 -9 -6 3 -10 10 -10 16 0 14
7 11 14 -7z m-648 -61 c-6 -20 -10 -23 -16 -13 -5 8 -4 22 2 33 13 26 22 14
14 -20z m779 7 c-3 -5 -14 -10 -23 -9 -14 0 -13 2 3 9 27 11 27 11 20 0z m22
-26 c-3 -3 -12 -4 -19 -1 -8 3 -5 6 6 6 11 1 17 -2 13 -5z m-807 -24 c0 -5 -2
-10 -4 -10 -3 0 -8 5 -11 10 -3 6 -1 10 4 10 6 0 11 -4 11 -10z m826 -5 c18
-15 18 -15 -5 -13 -14 2 -26 9 -29 16 -5 17 10 15 34 -3z m115 -148 c-10 -9
-11 -8 -5 6 3 10 9 15 12 12 3 -3 0 -11 -7 -18z m29 -86 c0 -5 -9 -7 -20 -4
-11 3 -20 7 -20 9 0 2 9 4 20 4 11 0 20 -4 20 -9z m-30 -58 c0 -5 -5 -15 -10
-23 -8 -12 -10 -11 -10 8 0 12 5 22 10 22 6 0 10 -3 10 -7z m-840 -46 c0 -3
-9 -3 -20 0 -20 5 -25 15 -14 26 6 6 34 -16 34 -26z m767 -122 c0 -8 -4 -12
-9 -9 -4 3 -8 9 -8 15 0 5 4 9 8 9 5 0 9 -7 9 -15z m-17 -35 c0 -11 -2 -20 -4
-20 -2 0 -6 9 -9 20 -3 11 -1 20 4 20 5 0 9 -9 9 -20z m-693 -62 c-3 -8 -6 -5
-6 6 -1 11 2 17 5 13 3 -3 4 -12 1 -19z m65 -50 c-9 -9 -12 -7 -12 12 0 19 3
21 12 12 9 -9 9 -15 0 -24z m18 -112 c0 -3 -4 -8 -10 -11 -5 -3 -10 -1 -10 4
0 6 5 11 10 11 6 0 10 -2 10 -4z m-100 -10 c0 -3 -4 -8 -10 -11 -5 -3 -10 -1
-10 4 0 6 5 11 10 11 6 0 10 -2 10 -4z m43 -13 c-7 -2 -19 -2 -25 0 -7 3 -2 5
12 5 14 0 19 -2 13 -5z m567 -22 c0 -5 -9 -11 -20 -14 -11 -3 -20 -1 -20 3 0
5 8 11 18 13 9 3 18 5 20 6 1 0 2 -3 2 -8z m-720 -151 c0 -5 -2 -10 -4 -10 -3
0 -8 5 -11 10 -3 6 -1 10 4 10 6 0 11 -4 11 -10z m755 -270 c3 -5 1 -10 -4
-10 -6 0 -11 5 -11 10 0 6 2 10 4 10 3 0 8 -4 11 -10z m80 -259 c3 -5 1 -12
-5 -16 -5 -3 -10 1 -10 9 0 18 6 21 15 7z m1495 -2901 c0 -5 -2 -10 -4 -10 -3
0 -8 5 -11 10 -3 6 -1 10 4 10 6 0 11 -4 11 -10z m-97 -65 c-3 -9 -8 -14 -10
-11 -3 3 -2 9 2 15 9 16 15 13 8 -4z m-130 -62 c-7 -2 -19 -2 -25 0 -7 3 -2 5
12 5 14 0 19 -2 13 -5z m32 -523 c-3 -5 -12 -10 -18 -10 -7 0 -6 4 3 10 19 12
23 12 15 0z m124 -267 c0 -24 -2 -25 -8 -8 -4 11 -19 23 -32 26 -21 6 -20 7 9
8 29 1 32 -2 31 -26z"/>
<path d="M2370 6714 c0 -6 7 -17 15 -24 8 -7 15 -19 15 -26 0 -8 5 -14 11 -14
5 0 7 -4 4 -10 -3 -5 -1 -10 4 -10 14 0 14 17 0 25 -6 4 -8 14 -5 22 4 9 2 11
-6 7 -8 -5 -9 -2 -5 10 4 11 3 15 -4 10 -6 -4 -15 0 -20 7 -5 8 -9 9 -9 3z"/>
<path d="M2597 6443 c-10 -9 -9 -33 1 -33 4 0 8 9 8 20 0 23 0 22 -9 13z"/>
<path d="M265 5620 c-3 -6 1 -7 9 -4 18 7 21 14 7 14 -6 0 -13 -4 -16 -10z"/>
<path d="M132 5607 l-23 -13 26 -12 c32 -15 32 -15 32 3 0 8 -5 11 -10 8 -6
-4 -8 0 -4 10 7 20 8 20 -21 4z"/>
<path d="M180 5598 c0 -9 5 -20 10 -23 13 -8 13 5 0 25 -8 13 -10 13 -10 -2z"/>
<path d="M156 5535 c4 -8 8 -15 10 -15 2 0 4 7 4 15 0 8 -4 15 -10 15 -5 0 -7
-7 -4 -15z"/>
<path d="M95 5320 c-8 -13 5 -13 25 0 13 8 13 10 -2 10 -9 0 -20 -4 -23 -10z"/>
<path d="M885 5290 c-4 -6 0 -10 7 -10 7 0 23 -3 36 -6 14 -4 22 -2 22 7 0 7
-3 10 -6 6 -3 -3 -17 -2 -30 3 -14 6 -26 6 -29 0z"/>
<path d="M130 5230 c-10 -6 -11 -10 -2 -10 6 0 12 -7 12 -15 0 -8 4 -15 8 -15
5 0 9 7 9 15 0 8 -4 15 -9 15 -5 0 -6 5 -3 10 8 12 4 12 -15 0z"/>
<path d="M248 4923 c7 -3 16 -2 19 1 4 3 -2 6 -13 5 -11 0 -14 -3 -6 -6z"/>
<path d="M320 4729 c0 -5 5 -7 10 -4 6 3 10 8 10 11 0 2 -4 4 -10 4 -5 0 -10
-5 -10 -11z"/>
<path d="M755 4719 c-4 -6 -5 -13 -2 -16 7 -7 27 6 27 18 0 12 -17 12 -25 -2z"/>
<path d="M718 4647 c-3 -19 -2 -25 4 -19 6 6 8 18 6 28 -3 14 -5 12 -10 -9z"/>
<path d="M286 4631 c-3 -5 1 -11 9 -14 9 -4 12 -1 8 9 -6 16 -10 17 -17 5z"/>
<path d="M21 4444 c0 -11 3 -14 6 -6 3 7 2 16 -1 19 -3 4 -6 -2 -5 -13z"/>
<path d="M795 4130 c-3 -5 -1 -10 4 -10 6 0 11 5 11 10 0 6 -2 10 -4 10 -3 0
-8 -4 -11 -10z"/>
<path d="M841 4011 c-10 -7 -10 -10 -1 -16 6 -4 16 -3 22 3 13 13 -4 23 -21
13z"/>
<path d="M858 3573 c6 -2 9 -10 6 -15 -4 -7 -2 -8 5 -4 13 9 5 26 -12 25 -9 0
-8 -2 1 -6z"/>
<path d="M755 3440 c-3 -5 -1 -10 4 -10 6 0 11 5 11 10 0 6 -2 10 -4 10 -3 0
-8 -4 -11 -10z"/>
<path d="M407 3333 c-3 -5 6 -9 19 -9 13 -1 21 2 18 7 -6 11 -31 12 -37 2z"/>
<path d="M2366 1005 c-3 -9 0 -15 8 -15 7 0 13 7 13 15 0 8 -4 15 -8 15 -4 0
-9 -7 -13 -15z"/>
<path d="M2158 798 c10 -13 10 -17 0 -21 -7 -2 -10 -7 -7 -11 3 -4 11 0 18 7
9 11 7 17 -6 28 -16 13 -17 12 -5 -3z"/>
<path d="M2591 56 c2 -2 26 -6 53 -9 30 -3 43 -1 35 4 -13 8 -97 13 -88 5z"/>
<path d="M3188 3 c12 -2 30 -2 40 0 9 3 -1 5 -23 4 -22 0 -30 -2 -17 -4z"/>
</g>
</svg>
