<svg width="10" height="10" viewBox="0 0 10 10" fill="none" xmlns="http://www.w3.org/2000/svg">
<g clip-path="url(#clip0_1_240)">
<path d="M5.88394 5.00024L9.81712 1.06749C10.0613 0.823338 10.0613 0.427495 9.81712 0.183364C9.57297 -0.0607858 9.17713 -0.0607858 8.933 0.183364L5.00023 4.11652L1.06748 0.183364C0.82333 -0.0607858 0.427487 -0.0607858 0.183357 0.183364C-0.0607739 0.427515 -0.0607934 0.823358 0.183357 1.06749L4.11652 5.00024L0.183357 8.93301C-0.0607934 9.17716 -0.0607934 9.573 0.183357 9.81713C0.427507 10.0613 0.82335 10.0613 1.06748 9.81713L5.00023 5.88395L8.93298 9.81713C9.17713 10.0613 9.57297 10.0613 9.8171 9.81713C10.0613 9.57298 10.0613 9.17714 9.8171 8.93301L5.88394 5.00024Z" fill="white"/>
</g>
<defs>
<clipPath id="clip0_1_240">
<rect width="10" height="10" fill="white"/>
</clipPath>
</defs>
</svg>
