<svg width="12" height="12" viewBox="0 0 12 12" fill="none" xmlns="http://www.w3.org/2000/svg">
<g clip-path="url(#clip0_1_316)">
<path d="M6 0C4.81331 0 3.65328 0.351894 2.66658 1.01118C1.67989 1.67047 0.910851 2.60754 0.456726 3.7039C0.00259972 4.80026 -0.11622 6.00666 0.115291 7.17054C0.346802 8.33443 0.918247 9.40353 1.75736 10.2426C2.59648 11.0818 3.66558 11.6532 4.82946 11.8847C5.99335 12.1162 7.19975 11.9974 8.2961 11.5433C9.39246 11.0892 10.3295 10.3201 10.9888 9.33342C11.6481 8.34673 12 7.18669 12 6C11.9983 4.40923 11.3656 2.88411 10.2407 1.75926C9.1159 0.634414 7.59077 0.00172054 6 0ZM6 11C5.0111 11 4.0444 10.7068 3.22215 10.1573C2.39991 9.60794 1.75904 8.82705 1.38061 7.91342C1.00217 6.99979 0.90315 5.99445 1.09608 5.02455C1.289 4.05464 1.76521 3.16373 2.46447 2.46447C3.16373 1.7652 4.05465 1.289 5.02455 1.09607C5.99446 0.903148 6.99979 1.00216 7.91342 1.3806C8.82705 1.75904 9.60794 2.3999 10.1574 3.22215C10.7068 4.04439 11 5.01109 11 6C10.9985 7.32564 10.4713 8.59656 9.53393 9.53393C8.59656 10.4713 7.32564 10.9985 6 11Z" fill="#875DEB"/>
<path d="M6.3585 2.53148C6.07016 2.47894 5.77381 2.49042 5.4904 2.5651C5.20699 2.63978 4.94345 2.77583 4.71845 2.96363C4.49344 3.15143 4.31246 3.38639 4.18831 3.65188C4.06415 3.91736 3.99987 4.20689 4 4.49998C4 4.63259 4.05268 4.75976 4.14645 4.85353C4.24022 4.9473 4.36739 4.99998 4.5 4.99998C4.63261 4.99998 4.75979 4.9473 4.85355 4.85353C4.94732 4.75976 5 4.63259 5 4.49998C4.99987 4.35287 5.03221 4.20754 5.0947 4.07436C5.15718 3.94118 5.24829 3.82342 5.36151 3.72949C5.47473 3.63556 5.60728 3.56777 5.74971 3.53095C5.89214 3.49413 6.04094 3.48919 6.1855 3.51648C6.38302 3.55482 6.56463 3.65117 6.70712 3.79322C6.84962 3.93527 6.94654 4.11658 6.9855 4.31398C7.02485 4.52118 6.99768 4.73552 6.90788 4.92635C6.81808 5.11718 6.67024 5.27473 6.4855 5.37648C6.17958 5.55371 5.92679 5.80974 5.75346 6.11788C5.58013 6.42602 5.49261 6.77501 5.5 7.12848V7.49998C5.5 7.63259 5.55268 7.75976 5.64645 7.85353C5.74022 7.9473 5.86739 7.99998 6 7.99998C6.13261 7.99998 6.25979 7.9473 6.35355 7.85353C6.44732 7.75976 6.5 7.63259 6.5 7.49998V7.12848C6.49373 6.95448 6.5334 6.78191 6.61503 6.62812C6.69667 6.47434 6.81737 6.34478 6.965 6.25248C7.32726 6.05351 7.61898 5.74721 7.80004 5.37568C7.98111 5.00415 8.04263 4.58566 7.97614 4.17774C7.90965 3.76982 7.71842 3.39252 7.42875 3.09772C7.13908 2.80293 6.76519 2.60511 6.3585 2.53148Z" fill="#875DEB"/>
<path d="M6.5 9C6.5 8.72386 6.27614 8.5 6 8.5C5.72386 8.5 5.5 8.72386 5.5 9C5.5 9.27614 5.72386 9.5 6 9.5C6.27614 9.5 6.5 9.27614 6.5 9Z" fill="#875DEB"/>
</g>
<defs>
<clipPath id="clip0_1_316">
<rect width="12" height="12" fill="white"/>
</clipPath>
</defs>
</svg>
